<?xml version="1.0" encoding="UTF-8"?>
<!DOCTYPE svg PUBLIC "-//W3C//DTD SVG 1.1//EN" "http://www.w3.org/Graphics/SVG/1.1/DTD/svg11.dtd" [
  <!ENTITY fill_color "#FFFFFF">
  <!ENTITY stroke_color "#010101">
]>
<svg
   xmlns="http://www.w3.org/2000/svg"
   version="1.0"
   width="55"
   height="55"
   viewBox="0 0 55 55"
   id="svg120"
   xml:space="preserve"><path
   d="M 23.000126,9.369486 C 22.601191,5.2851303 28.752807,2.9886181 30.978565,6.4692237 34.531726,1.9494402 41.73917,4.7772248 41.111962,8.1293555 c 4.458671,-1.979128 9.878914,1.576469 6.77748,5.6074755 4.02251,2.427307 2.246797,9.461405 -2.690259,8.330588 3.052946,4.040533 -2.741033,7.32616 -6.560933,4.97001 -2.403816,2.83175 -11.040537,2.323845 -11.703075,-1.871169 -6.095094,2.788388 -12.397578,-0.820311 -8.12127,-7.079522 -8.074218,-5.2143 -0.336213,-10.9372163 4.186221,-8.717252 z"
   id="path2256"
   style="fill:none;stroke:&fill_color;;stroke-width:2;stroke-miterlimit:4;stroke-opacity:1;stroke-dasharray:none" /><path
   d="m 33.70593,33.331902 a 1.8476672,1.6237075 0 1 1 -3.695334,0 1.8476672,1.6237075 0 1 1 3.695334,0 z"
   transform="matrix(1.0959906,0,0,1.1092307,1.5890678,-3.3609184)"
   id="path2263"
   style="fill:none;stroke:&fill_color;;stroke-width:2;stroke-linecap:square;stroke-linejoin:miter;stroke-miterlimit:4;stroke-opacity:1;stroke-dasharray:none;stroke-dashoffset:0" />
     <path
   d="m 38.74502,37.979065 a 1.3997478,1.4557378 0 1 1 -2.799496,0 1.3997478,1.4557378 0 1 1 2.799496,0 z"
   transform="translate(5.4870118,1.9036571)"
   id="path2265"
   style="fill:none;stroke:&fill_color;;stroke-width:2;stroke-linecap:square;stroke-linejoin:miter;stroke-miterlimit:4;stroke-opacity:1;stroke-dasharray:none;stroke-dashoffset:0" /><g
   transform="translate(25.519287,11.066432)"
   id="g3759"><path
     d="m -13.107667,23.926346 0,14.670779"
     id="path2987"
     style="fill:none;stroke:&fill_color;;stroke-width:3.5;stroke-linecap:round;stroke-linejoin:miter;stroke-miterlimit:4;stroke-opacity:1;stroke-dasharray:none" /><path
     d="m -20.443057,31.261735 14.670779,0"
     id="path3757"
     style="fill:none;stroke:&fill_color;;stroke-width:3.5;stroke-linecap:round;stroke-linejoin:miter;stroke-miterlimit:4;stroke-opacity:1;stroke-dasharray:none" /></g></svg>