<?xml version="1.0" encoding="UTF-8" standalone="no"?>
<!-- Generator: Adobe Illustrator 12.0.1, SVG Export Plug-In . SVG Version: 6.00 Build 51448)  -->

<svg
   xmlns:dc="http://purl.org/dc/elements/1.1/"
   xmlns:cc="http://creativecommons.org/ns#"
   xmlns:rdf="http://www.w3.org/1999/02/22-rdf-syntax-ns#"
   xmlns:svg="http://www.w3.org/2000/svg"
   xmlns="http://www.w3.org/2000/svg"
   xmlns:sodipodi="http://sodipodi.sourceforge.net/DTD/sodipodi-0.dtd"
   xmlns:inkscape="http://www.inkscape.org/namespaces/inkscape"
   version="1.0"
   width="55"
   height="55"
   viewBox="0 0 55 55"
   id="svg120"
   xml:space="preserve"
   sodipodi:version="0.32"
   inkscape:version="0.46+devel"
   sodipodi:docname="add-box.svg"
   inkscape:output_extension="org.inkscape.output.svg.inkscape"><metadata
     id="metadata25"><rdf:RDF><cc:Work
         rdf:about=""><dc:format>image/svg+xml</dc:format><dc:type
           rdf:resource="http://purl.org/dc/dcmitype/StillImage" /><dc:title></dc:title></cc:Work></rdf:RDF></metadata><sodipodi:namedview
     pagecolor="#ffffff"
     bordercolor="#666666"
     borderopacity="1"
     objecttolerance="10"
     gridtolerance="10"
     guidetolerance="10"
     inkscape:pageopacity="0"
     inkscape:pageshadow="2"
     inkscape:window-width="1272"
     inkscape:window-height="947"
     id="namedview23"
     showgrid="false"
     inkscape:zoom="8.9301795"
     inkscape:cx="29.87843"
     inkscape:cy="27.152882"
     inkscape:window-x="0"
     inkscape:window-y="25"
     inkscape:current-layer="svg120"
     showguides="true"
     inkscape:guide-bbox="true" /><defs
     id="defs133"><inkscape:perspective
   sodipodi:type="inkscape:persp3d"
   inkscape:vp_x="0 : 27.5 : 1"
   inkscape:vp_y="0 : 1000 : 0"
   inkscape:vp_z="55 : 27.5 : 1"
   inkscape:persp3d-origin="27.5 : 18.333333 : 1"
   id="perspective27" />
	
	<inkscape:perspective
   id="perspective103"
   inkscape:persp3d-origin="0.5 : 0.33333333 : 1"
   inkscape:vp_z="1 : 0.5 : 1"
   inkscape:vp_y="0 : 1000 : 0"
   inkscape:vp_x="0 : 0.5 : 1"
   sodipodi:type="inkscape:persp3d" /><inkscape:perspective
   id="perspective1574"
   inkscape:persp3d-origin="0.5 : 0.33333333 : 1"
   inkscape:vp_z="1 : 0.5 : 1"
   inkscape:vp_y="0 : 1000 : 0"
   inkscape:vp_x="0 : 0.5 : 1"
   sodipodi:type="inkscape:persp3d" /><inkscape:perspective
   id="perspective1664"
   inkscape:persp3d-origin="0.5 : 0.33333333 : 1"
   inkscape:vp_z="1 : 0.5 : 1"
   inkscape:vp_y="0 : 1000 : 0"
   inkscape:vp_x="0 : 0.5 : 1"
   sodipodi:type="inkscape:persp3d" /><inkscape:perspective
   id="perspective809"
   inkscape:persp3d-origin="0.5 : 0.33333333 : 1"
   inkscape:vp_z="1 : 0.5 : 1"
   inkscape:vp_y="0 : 1000 : 0"
   inkscape:vp_x="0 : 0.5 : 1"
   sodipodi:type="inkscape:persp3d" /></defs><rect
     style="fill:#ffffff;fill-opacity:1;stroke:#000000;stroke-width:0.1;stroke-linecap:round;stroke-miterlimit:4;stroke-opacity:1;stroke-dasharray:none;stroke-dashoffset:0"
     id="rect1644"
     width="54.898254"
     height="55.122215"
     x="-0.014068492"
     y="0.0038335328"
     ry="3.8061128" /><rect
     style="fill:#ffffff;fill-opacity:1;stroke:#000000;stroke-width:3.47577;stroke-linecap:square;stroke-miterlimit:4;stroke-opacity:1;stroke-dasharray:none;stroke-dashoffset:0"
     id="rect1700"
     width="49.587032"
     height="49.699017"
     x="2.6415424"
     y="2.659445"
     ry="0.50441098" /><path
     style="fill:none;stroke:#000000;stroke-width:2.55703568;stroke-linecap:round;stroke-miterlimit:4;stroke-opacity:1;stroke-dasharray:none"
     d="m 14.83056,27.963431 c -0.213635,0 -0.399797,0.159301 -0.399797,0.372659 l 0,7.293453 -7.2763081,0 c -0.2136354,0 -0.3731441,0.159301 -0.3731441,0.372658 l 0,4.365425 c 0,0.213357 0.1595087,0.372659 0.3731441,0.372659 l 7.2763081,0 0,7.266834 c 0,0.213356 0.186162,0.399277 0.399797,0.399277 l 4.344464,0 c 0.213636,0 0.399797,-0.185921 0.399797,-0.399277 l 0,-7.266834 7.27631,0 c 0.213636,0 0.373144,-0.159302 0.373144,-0.372659 l 0,-4.365425 c 0,-0.213357 -0.159508,-0.372658 -0.373144,-0.372658 l -7.27631,0 0,-7.293453 c 0,-0.213358 -0.186161,-0.372659 -0.399797,-0.372659 l -4.344464,0 z"
     id="rect1054" /><g
     id="g827"
     transform="translate(0.78385882,-1.5677176)"><path
       transform="matrix(1.182963,0,0,1.0619561,-11.6391,-5.1177256)"
       d="m 49.159145,24.765446 c 0,6.37001 -4.762832,11.533923 -10.638084,11.533923 -5.875252,0 -10.638084,-5.163913 -10.638084,-11.533923 0,-6.37001 4.762832,-11.533923 10.638084,-11.533923 5.875252,0 10.638084,5.163913 10.638084,11.533923 z"
       sodipodi:ry="11.533923"
       sodipodi:rx="10.638084"
       sodipodi:cy="24.765446"
       sodipodi:cx="38.521061"
       id="path23"
       style="fill:none;stroke:#000000;stroke-width:3;stroke-linecap:square;stroke-linejoin:miter;stroke-miterlimit:3;stroke-opacity:1;stroke-dasharray:none;stroke-dashoffset:0"
       sodipodi:type="arc" /><path
       transform="matrix(1.2206472,0,0,0.90627091,65.035755,5.1481858)"
       sodipodi:open="true"
       sodipodi:end="2.6642553"
       sodipodi:start="0.43568826"
       d="m -20.760026,21.840214 c -1.226729,3.504201 -4.357407,5.022496 -6.992566,3.391207 -1.05569,-0.653522 -1.918587,-1.754169 -2.453566,-3.129584"
       sodipodi:ry="6.9987397"
       sodipodi:rx="5.263052"
       sodipodi:cy="18.886505"
       sodipodi:cx="-25.531403"
       id="path25"
       style="fill:none;stroke:#000000;stroke-width:2.99968243;stroke-linecap:round;stroke-linejoin:miter;stroke-miterlimit:3;stroke-opacity:1;stroke-dasharray:none;stroke-dashoffset:0"
       sodipodi:type="arc" /><g
       transform="translate(-0.16796862,0)"
       id="g823"><path
         sodipodi:type="arc"
         style="fill:none;stroke:#000000;stroke-width:3.15499997;stroke-linecap:round;stroke-linejoin:miter;stroke-miterlimit:3;stroke-opacity:1;stroke-dasharray:none;stroke-dashoffset:0"
         id="path799"
         sodipodi:cx="29.450695"
         sodipodi:cy="17.710716"
         sodipodi:rx="0.67187899"
         sodipodi:ry="0.67187899"
         d="m 30.122574,17.710716 c 0,0.371069 -0.30081,0.671879 -0.671879,0.671879 -0.371068,0 -0.671879,-0.30081 -0.671879,-0.671879 0,-0.371068 0.300811,-0.671879 0.671879,-0.671879 0.371069,0 0.671879,0.300811 0.671879,0.671879 z"
         transform="translate(0,-0.05599007)" /><path
         transform="translate(9.2943268,-0.05599007)"
         sodipodi:type="arc"
         style="fill:none;stroke:#000000;stroke-width:3.15499997;stroke-linecap:round;stroke-linejoin:miter;stroke-miterlimit:3;stroke-opacity:1;stroke-dasharray:none;stroke-dashoffset:0"
         id="path799-7"
         sodipodi:cx="29.450695"
         sodipodi:cy="17.710716"
         sodipodi:rx="0.67187899"
         sodipodi:ry="0.67187899"
         d="m 30.122574,17.710716 c 0,0.371069 -0.30081,0.671879 -0.671879,0.671879 -0.371068,0 -0.671879,-0.30081 -0.671879,-0.671879 0,-0.371068 0.300811,-0.671879 0.671879,-0.671879 0.371069,0 0.671879,0.300811 0.671879,0.671879 z" /></g></g></svg>