<?xml version="1.0" encoding="UTF-8" standalone="no"?>
<!-- Generator: Adobe Illustrator 12.0.1, SVG Export Plug-In . SVG Version: 6.00 Build 51448)  -->

<svg
   xmlns:dc="http://purl.org/dc/elements/1.1/"
   xmlns:cc="http://creativecommons.org/ns#"
   xmlns:rdf="http://www.w3.org/1999/02/22-rdf-syntax-ns#"
   xmlns:svg="http://www.w3.org/2000/svg"
   xmlns="http://www.w3.org/2000/svg"
   xmlns:sodipodi="http://sodipodi.sourceforge.net/DTD/sodipodi-0.dtd"
   xmlns:inkscape="http://www.inkscape.org/namespaces/inkscape"
   version="1.0"
   width="55"
   height="55"
   viewBox="0 0 55 55"
   id="svg120"
   xml:space="preserve"
   sodipodi:version="0.32"
   inkscape:version="0.46+devel"
   sodipodi:docname="add-susurro.svg"
   inkscape:output_extension="org.inkscape.output.svg.inkscape"><metadata
     id="metadata25"><rdf:RDF><cc:Work
         rdf:about=""><dc:format>image/svg+xml</dc:format><dc:type
           rdf:resource="http://purl.org/dc/dcmitype/StillImage" /><dc:title></dc:title></cc:Work></rdf:RDF></metadata><sodipodi:namedview
     pagecolor="#ffffff"
     bordercolor="#666666"
     borderopacity="1"
     objecttolerance="10"
     gridtolerance="10"
     guidetolerance="10"
     inkscape:pageopacity="0"
     inkscape:pageshadow="2"
     inkscape:window-width="1280"
     inkscape:window-height="950"
     id="namedview23"
     showgrid="false"
     inkscape:zoom="8.9301795"
     inkscape:cx="18.628881"
     inkscape:cy="27.152882"
     inkscape:window-x="0"
     inkscape:window-y="25"
     inkscape:current-layer="svg120" /><defs
     id="defs133"><inkscape:perspective
   sodipodi:type="inkscape:persp3d"
   inkscape:vp_x="0 : 27.5 : 1"
   inkscape:vp_y="0 : 1000 : 0"
   inkscape:vp_z="55 : 27.5 : 1"
   inkscape:persp3d-origin="27.5 : 18.333333 : 1"
   id="perspective27" />
	
	<inkscape:perspective
   id="perspective103"
   inkscape:persp3d-origin="0.5 : 0.33333333 : 1"
   inkscape:vp_z="1 : 0.5 : 1"
   inkscape:vp_y="0 : 1000 : 0"
   inkscape:vp_x="0 : 0.5 : 1"
   sodipodi:type="inkscape:persp3d" /><inkscape:perspective
   id="perspective1574"
   inkscape:persp3d-origin="0.5 : 0.33333333 : 1"
   inkscape:vp_z="1 : 0.5 : 1"
   inkscape:vp_y="0 : 1000 : 0"
   inkscape:vp_x="0 : 0.5 : 1"
   sodipodi:type="inkscape:persp3d" /><inkscape:perspective
   id="perspective1686"
   inkscape:persp3d-origin="0.5 : 0.33333333 : 1"
   inkscape:vp_z="1 : 0.5 : 1"
   inkscape:vp_y="0 : 1000 : 0"
   inkscape:vp_x="0 : 0.5 : 1"
   sodipodi:type="inkscape:persp3d" /></defs><rect
     style="fill:none;stroke:#ffffff;stroke-width:2;stroke-linecap:round;stroke-miterlimit:4;stroke-opacity:1;stroke-dasharray:none;stroke-dashoffset:0;fill-opacity:1"
     id="rect1644"
     width="54.898254"
     height="55.122215"
     x="0.20989008"
     y="0.11581264"
     ry="3.8061128" /><path
     style="fill:none;fill-opacity:1;stroke:#ffffff;stroke-width:1.86975145;stroke-linecap:round;stroke-miterlimit:4;stroke-opacity:1;stroke-dasharray:1.86975145, 3.73950291;stroke-dashoffset:0"
     d="m 31.559765,2.1577207 c -11.843026,0 -21.440125,6.7597343 -21.440125,15.0850343 0,8.325301 9.597099,15.057807 21.440125,15.057807 0.914185,0 1.811611,-0.03087 2.695688,-0.108917 2.643928,4.512539 7.805427,7.593994 13.760548,7.760352 -2.925897,-2.504111 -5.139787,-5.740724 -6.300388,-9.42134 6.719651,-2.545253 11.284277,-7.545962 11.284277,-13.287902 0,-8.3253 -9.597099,-15.0850343 -21.440125,-15.0850343 z"
     id="path1046" /><path
     style="fill:none;stroke:#ffffff;stroke-width:2.55703568;stroke-linecap:round;stroke-miterlimit:4;stroke-opacity:1;stroke-dasharray:none"
     d="m 10.369508,32.460736 c -0.213635,0 -0.3997968,0.159301 -0.3997968,0.372659 l 0,7.293453 -7.276308,0 c -0.213635,0 -0.373144,0.159301 -0.373144,0.372658 l 0,4.365425 c 0,0.213357 0.159509,0.372659 0.373144,0.372659 l 7.276308,0 0,7.266834 c 0,0.213356 0.1861618,0.399277 0.3997968,0.399277 l 4.344464,0 c 0.213636,0 0.399797,-0.185921 0.399797,-0.399277 l 0,-7.266834 7.27631,0 c 0.213636,0 0.373144,-0.159302 0.373144,-0.372659 l 0,-4.365425 c 0,-0.213357 -0.159508,-0.372658 -0.373144,-0.372658 l -7.27631,0 0,-7.293453 c 0,-0.213358 -0.186161,-0.372659 -0.399797,-0.372659 l -4.344464,0 z"
     id="rect1054-1" /></svg>
