<?xml version="1.0" encoding="UTF-8" standalone="no"?>
<!-- Generator: Adobe Illustrator 12.0.1, SVG Export Plug-In . SVG Version: 6.00 Build 51448)  -->

<svg
   xmlns:dc="http://purl.org/dc/elements/1.1/"
   xmlns:cc="http://creativecommons.org/ns#"
   xmlns:rdf="http://www.w3.org/1999/02/22-rdf-syntax-ns#"
   xmlns:svg="http://www.w3.org/2000/svg"
   xmlns="http://www.w3.org/2000/svg"
   xmlns:sodipodi="http://sodipodi.sourceforge.net/DTD/sodipodi-0.dtd"
   xmlns:inkscape="http://www.inkscape.org/namespaces/inkscape"
   version="1.0"
   width="55"
   height="55"
   viewBox="0 0 55 55"
   id="svg120"
   xml:space="preserve"
   sodipodi:version="0.32"
   inkscape:version="0.46+devel"
   sodipodi:docname="add-box.svg"
   inkscape:output_extension="org.inkscape.output.svg.inkscape"><metadata
     id="metadata25"><rdf:RDF><cc:Work
         rdf:about=""><dc:format>image/svg+xml</dc:format><dc:type
           rdf:resource="http://purl.org/dc/dcmitype/StillImage" /><dc:title></dc:title></cc:Work></rdf:RDF></metadata><sodipodi:namedview
     pagecolor="#ffffff"
     bordercolor="#666666"
     borderopacity="1"
     objecttolerance="10"
     gridtolerance="10"
     guidetolerance="10"
     inkscape:pageopacity="0"
     inkscape:pageshadow="2"
     inkscape:window-width="1280"
     inkscape:window-height="950"
     id="namedview23"
     showgrid="false"
     inkscape:zoom="8.9301795"
     inkscape:cx="21.570155"
     inkscape:cy="27.152882"
     inkscape:window-x="0"
     inkscape:window-y="25"
     inkscape:current-layer="svg120" /><defs
     id="defs133"><inkscape:perspective
   sodipodi:type="inkscape:persp3d"
   inkscape:vp_x="0 : 27.5 : 1"
   inkscape:vp_y="0 : 1000 : 0"
   inkscape:vp_z="55 : 27.5 : 1"
   inkscape:persp3d-origin="27.5 : 18.333333 : 1"
   id="perspective27" />
	
	<inkscape:perspective
   id="perspective103"
   inkscape:persp3d-origin="0.5 : 0.33333333 : 1"
   inkscape:vp_z="1 : 0.5 : 1"
   inkscape:vp_y="0 : 1000 : 0"
   inkscape:vp_x="0 : 0.5 : 1"
   sodipodi:type="inkscape:persp3d" /><inkscape:perspective
   id="perspective1574"
   inkscape:persp3d-origin="0.5 : 0.33333333 : 1"
   inkscape:vp_z="1 : 0.5 : 1"
   inkscape:vp_y="0 : 1000 : 0"
   inkscape:vp_x="0 : 0.5 : 1"
   sodipodi:type="inkscape:persp3d" /><inkscape:perspective
   id="perspective1664"
   inkscape:persp3d-origin="0.5 : 0.33333333 : 1"
   inkscape:vp_z="1 : 0.5 : 1"
   inkscape:vp_y="0 : 1000 : 0"
   inkscape:vp_x="0 : 0.5 : 1"
   sodipodi:type="inkscape:persp3d" /></defs>
   
   
   <rect
     style="fill:none;fill-opacity:1;stroke:#ffffff;stroke-width:2;stroke-linecap:round;stroke-miterlimit:4;stroke-opacity:1;stroke-dasharray:none;stroke-dashoffset:0"
     id="rect1644"
     width="54.898254"
     height="55.122215"
     x="-0.014068492"
     y="0.0038335328"
     ry="3.8061128" />
     
   <path
     style="fill:none;stroke:#ffffff;stroke-width:2.55703568;stroke-linecap:round;stroke-miterlimit:4;stroke-opacity:1;stroke-dasharray:none"
     d="m 10.239387,32.106685 c -0.213635,0 -0.399797,0.159301 -0.399797,0.372659 l 0,7.293453 -7.2763082,0 c -0.2136354,0 -0.3731441,0.159301 -0.3731441,0.372658 l 0,4.365425 c 0,0.213357 0.1595087,0.372659 0.3731441,0.372659 l 7.2763082,0 0,7.266834 c 0,0.213356 0.186162,0.399277 0.399797,0.399277 l 4.344464,0 c 0.213636,0 0.399797,-0.185921 0.399797,-0.399277 l 0,-7.266834 7.27631,0 c 0.213636,0 0.373144,-0.159302 0.373144,-0.372659 l 0,-4.365425 c 0,-0.213357 -0.159508,-0.372658 -0.373144,-0.372658 l -7.27631,0 0,-7.293453 c 0,-0.213358 -0.186161,-0.372659 -0.399797,-0.372659 l -4.344464,0 z"
     id="rect1054" />
   <path
     sodipodi:type="star"
     style="fill:none;fill-opacity:1;stroke:#ffffff;stroke-width:1.20351303;stroke-linecap:square;stroke-linejoin:miter;stroke-miterlimit:4;stroke-opacity:1;stroke-dasharray:none;stroke-dashoffset:0"
     id="path2233"
     sodipodi:sides="10"
     sodipodi:cx="28.890797"
     sodipodi:cy="11.887765"
     sodipodi:r1="9.2679806"
     sodipodi:r2="5.3444834"
     sodipodi:arg1="0.49066806"
     sodipodi:arg2="0.78731865"
     inkscape:flatsided="false"
     inkscape:rounded="0"
     inkscape:randomized="0"
     d="m 37.065325,16.254979 -4.402673,-0.580843 0.274493,4.551646 -3.220426,-3.057737 -2.453321,3.843701 -0.808087,-4.36668 -4.244049,1.667594 1.912914,-4.0077 -4.413695,-1.145478 3.903247,-2.117915 -2.897459,-3.5210157 4.402672,0.5808424 -0.274493,-4.5516459 3.220426,3.0577373 2.453322,-3.8437016 0.808086,4.3666804 4.24405,-1.6675939 -1.912915,4.0077 4.413696,1.145478 -3.903248,2.117914 2.89746,3.521017 z"
     transform="matrix(2.1310856,0.68276117,-0.43538922,1.4614936,-27.095557,-18.921051)" /></svg>
