<?xml version="1.0" encoding="UTF-8" standalone="no"?>
<!DOCTYPE svg  PUBLIC "-//W3C//DTD SVG 1.1//EN"  "http://www.w3.org/Graphics/SVG/1.1/DTD/svg11.dtd" [
	<!ENTITY stroke_color "#010101">
	<!ENTITY fill_color "#FFFFFF">
]>
<svg
   xmlns:dc="http://purl.org/dc/elements/1.1/"
   xmlns:cc="http://creativecommons.org/ns#"
   xmlns:rdf="http://www.w3.org/1999/02/22-rdf-syntax-ns#"
   xmlns:svg="http://www.w3.org/2000/svg"
   xmlns="http://www.w3.org/2000/svg"
   xmlns:sodipodi="http://sodipodi.sourceforge.net/DTD/sodipodi-0.dtd"
   xmlns:inkscape="http://www.inkscape.org/namespaces/inkscape"
   enable-background="new 0 0 55 55"
   height="55px"
   version="1.1"
   viewBox="0 0 55 55"
   width="55px"
   x="0px"
   xml:space="preserve"
   y="0px"
   id="svg2982"
   id="perspective3007" />
		<g
   id="g3847"><polygon
     style="fill:&fill_color;;stroke:&stroke_color;;stroke-width:3.5"
     id="polygon2989"
     points="10.932,48.914 10.932,6.088 31.874,6.088 43.818,18.027 43.818,48.914 " /><polyline
     style="fill:none;stroke:&stroke_color;;stroke-width:3.5"
     id="polyline2991"
     points="43.818,18.027 31.874,18.027 31.874,6.088" /><g
     transform="matrix(0.51388269,0,0,0.50412022,-10.567756,30.275485)"
     id="g3842"><path
       style="font-size:12px;fill:none;stroke:#000000;stroke-width:2;stroke-miterlimit:4;stroke-opacity:1;stroke-dasharray:none"
       id="path621"
       d="m 70.442886,-5.769188 c -6.036427,0.344835 -4.687469,-2.881599 -5.879094,-2.45094 -20.540198,2.781211 -17.545069,-13.706509 4.21034,-7.904914 7.016126,3.337187 -0.336581,6.707171 -0.336581,6.707171 0,0 -0.326222,2.023059 2.005335,3.648683 z" /><path
       style="fill:&fill_color;;fill-opacity:1;stroke:#000000;stroke-width:2;stroke-linecap:round;stroke-miterlimit:4;stroke-opacity:1;stroke-dasharray:none"
       id="rect877"
       d="m 94.221391,-0.228835 c -1.325037,-1.310657 -3.481863,-1.294017 -4.818102,0.0057 l -8.918113,8.674044 -8.869285,-8.773026 c -1.325038,-1.310658 -3.455711,-1.319454 -4.791949,-0.01977 -1.33624,1.299669 -1.371363,3.414987 -0.04632,4.725644 l 8.869285,8.773027 -8.918113,8.674042 c -1.33624,1.29967 -1.345208,3.389551 -0.02017,4.700206 1.325037,1.310658 3.455711,1.319455 4.791949,0.01977 l 8.918114,-8.674043 8.869286,8.773027 c 1.325036,1.310656 3.481862,1.294015 4.8181,-0.0057 1.336241,-1.299669 1.345209,-3.38955 0.02016,-4.700206 L 85.256948,13.170853 94.175061,4.496809 C 95.5113,3.19714 95.546422,1.081823 94.221381,-0.228834 z" /><path
       style="fill:&fill_color;;fill-opacity:1;stroke:#000000;stroke-width:2;stroke-linecap:round;stroke-miterlimit:4;stroke-opacity:1;stroke-dasharray:none"
       id="path235"
       d="m 85.958568,-3.413962 a 5.5000002,5.8571431 0 0 1 -11,0 5.5000002,5.8571431 0 1 1 11,0 z" /></g></g></g></svg>
