<?xml version="1.0" encoding="UTF-8" standalone="no"?>
<!-- Created with Inkscape (http://www.inkscape.org/) -->
<!DOCTYPE svg PUBLIC "-//W3C//DTD SVG 1.1//EN" "http://www.w3.org/Graphics/SVG/1.1/DTD/svg11.dtd" [
       <!ENTITY ns_svg "http://www.w3.org/2000/svg">
       <!ENTITY ns_xlink "http://www.w3.org/1999/xlink">
       <!ENTITY stroke_color "#000000">
       <!ENTITY fill_color "#AAAAAA">
]>

<svg
   xmlns:svg="http://www.w3.org/2000/svg"
   xmlns="http://www.w3.org/2000/svg"
   version="1.0"
   width="48"
   height="48"
   id="svg2173">
  <defs
     id="defs2175" />
  <g
     id="layer1"
     transform="matrix(0.82620172,0,0,0.84182981,4.2805137,3.2126069)">
    <path
       d="m 22.127176,13.501917 c -6.036427,0.344835 -4.687469,-2.881599 -5.879094,-2.45094 -20.5401977,2.781211 -17.5450694,-13.706509 4.21034,-7.9049136 7.016126,3.3371866 -0.336581,6.7071706 -0.336581,6.7071706 0,0 -0.326222,2.023059 2.005335,3.648683 z"
       id="path621"
       style="font-size:12px;fill:none;stroke:&stroke_color;;stroke-width:2;stroke-miterlimit:4;stroke-opacity:1;stroke-dasharray:none" />
    <path
       d="m 45.905681,19.04227 c -1.325037,-1.310657 -3.481863,-1.294017 -4.818102,0.0057 l -8.918113,8.674044 -8.869285,-8.773026 c -1.325038,-1.310658 -3.455711,-1.319454 -4.791949,-0.01977 -1.33624,1.299669 -1.371363,3.414987 -0.04632,4.725644 l 8.869285,8.773027 -8.918113,8.674042 c -1.33624,1.29967 -1.345208,3.389551 -0.02017,4.700206 1.325037,1.310658 3.455711,1.319455 4.791949,0.01977 l 8.918114,-8.674043 8.869286,8.773027 c 1.325036,1.310656 3.481862,1.294015 4.8181,-0.0057 1.336241,-1.299669 1.345209,-3.38955 0.02016,-4.700206 l -8.869285,-8.773027 8.918113,-8.674044 c 1.336239,-1.299669 1.371361,-3.414986 0.04632,-4.725643 z"
       id="rect877"
       style="fill:&fill_color;;fill-opacity:1;stroke:&stroke_color;;stroke-width:2;stroke-linecap:round;stroke-miterlimit:4;stroke-opacity:1;stroke-dasharray:none" />
    <path
       d="m 17.142858,26.428572 a 5.5000002,5.8571431 0 1 1 -11.0000004,0 5.5000002,5.8571431 0 1 1 11.0000004,0 z"
       transform="translate(20.5,-10.571429)"
       id="path235"
       style="fill:&fill_color;;fill-opacity:1;stroke:&stroke_color;;stroke-width:2;stroke-linecap:round;stroke-miterlimit:4;stroke-opacity:1;stroke-dasharray:none" />
  </g>
</svg>
